<?xml version="1.0" encoding="UTF-8" standalone="no"?>
<svg
   version="1.0"
   width="1344.7166pt"
   height="516.29999pt"
   viewBox="0 0 1344.7166 516.29999"
   preserveAspectRatio="xMidYMid"
   id="svg29"
   xmlns="http://www.w3.org/2000/svg"
   xmlns:svg="http://www.w3.org/2000/svg">
  <defs
     id="defs29" />
  <g
     transform="matrix(0.1,0,0,-0.1,33.211705,738.49929)"
     fill="#000000"
     stroke="none"
     id="g29">
    <path
       d="m 1267.117,7097.9929 c -224,-452 -361.99996,-676 -747.99996,-1222 -485.999995,-685 -586.999995,-849 -701,-1132 -195,-485 -200,-981 -16,-1435 189.0000045,-466 597,-852 1066,-1008 202.99996,-68 282.99996,-79 550.99996,-79 209,0 252,2 335,21 245,55 484,159 670,291 122,86 316,280 402,402 37,52 96,151 132,220 140,273 196,511 196,840 0,338 -69,620 -233,947 -108,215 -196,350 -567,873 -454,640 -594,867 -825,1343 -60,124 -112,226 -115,226 -3,0 -69,-129 -147,-287 z m 385,-1602 c 45,-6 91,-14 102,-18 19,-7 18,-9 -10,-52 -24,-37 -30,-56 -30,-101 0,-78 -20,-102 -106,-123 -117,-30 -155,-59 -205,-158 -25,-50 -33,-58 -58,-58 -21,0 -38,10 -60,35 -39,45 -52,76 -81,195 -36,151 -61,186 -154,222 l -39,15 69,17 c 38,9 96,20 129,25 87,12 347,13 443,1 z m -782.99996,-153 c 53,-36 142.99996,-124 149.99996,-148 10,-31 -3,-84 -24.99996,-104 -43,-39 -112,-14 -202,71 -31,30 -61,54 -67,54 -15,0 -26,-22 -23,-51 4,-30 -60,-94 -126,-128 -90,-46 -94,-79 -21,-168 28,-35 66,-72 85,-84 32,-20 36,-20 59,-5 14,9 25,17 25,19 0,28 35,168 46,185 44,67 123,40 241.99996,-81 77,-79 142,-168 142,-193 0,-29 -32,-44 -90,-44 -33,0 -70.99996,-5 -84.99996,-12 -22,-10 -25,-17 -25,-67 0,-31 -4,-61 -8,-68 -4,-6 -36,-24 -72,-39 -36,-15 -75,-34 -88,-42 -12,-8 -61,-72 -108,-143 -94,-140 -91,-127 -68,-246 9,-47 -16,-43 -56,7 -56,71 -108,84 -210,54 -64,-19 -110,-61 -110,-101 1,-40 34,-109 63,-128 24,-15 28,-15 66,4 22,12 49,21 60,21 37,0 50,-56 27,-112 -11,-25 35,-68 73,-68 24,0 34,-7 53,-42 36,-64 47,-67 119,-33 50,24 75,30 128,30 102,-1 143,-25 279.99996,-164 124,-127 147,-142 256,-165 83,-17 111,-37 126,-84 15,-52 -1,-128 -50,-229 -40,-82 -67,-114 -187,-220 -43,-37 -105,-109 -158,-182 -48,-66 -90.99996,-123 -95.99996,-126 -14,-9 -170,46 -197,69 -24,21 -24,22 -13,106 35,254 30,277 -84,399 -119,128 -151,227 -111,341 23,65 19,86 -26,135 -52,57 -142,116 -285,189 -61,31 -127,71 -147,89 -26,23 -62.999995,84 -127.9999955,216 l -91.9999995,184 12,79 c 41,264 186.999995,534 410.999995,758 133,133 219,197 352,261 94,45 125,46 183,6 z m 1638.99996,-309 c 236,-237 349,-457 401,-780 18,-114 21,-406 5,-518 -44,-313 -159,-551 -376,-779 l -97,-102 -23,67 c -28,79 -30,129 -8,261 17,110 10,169 -31,239 -39,66 -87,84 -221,84 -138,0 -190,16 -254,79 -62,60 -77,119 -56,220 25,119 132,305 204,355 80,55 195,87 256,72 14,-3 51,-29 82,-56 64,-56 127,-80 207,-80 110,0 167,39 167,114 0,38 -5,46 -71,108 -39,38 -75,68 -78,68 -4,0 -15,-16 -24,-35 -21,-44 -61,-71 -87,-59 -10,5 -41,38 -67,74 -76,102 -133,108 -181,18 -37,-71 -80,-114 -127,-127 -94,-26 -142,-5 -152,66 -5,37 -2,46 25,73 21,20 40,30 61,30 46,0 65,26 84,115 26,121 48,153 135,196 40,20 84,47 97,59 26,24 51,77 41,87 -3,3 -37,0 -74,-7 -55,-10 -73,-10 -92,0 -20,11 -22,17 -17,62 6,51 40,119 73,150 21,18 74,48 88,48 4,0 54,-46 110,-102 z m -411,-184 c 48,-55 62,-149 27,-184 -27,-27 -76,-26 -94,3 -34,52 -32,146 5,186 26,27 34,27 62,-5 z"
       id="path1-2"
       style="fill:#f9f5ff;fill-opacity:1" />
    <path
       d="m 6093.7526,6213.798 c -277.5736,-89.7419 -423.665,-273.3997 -423.665,-525.9289 0,-281.7477 148.1783,-423.665 563.4953,-540.538 300.5307,-85.5678 354.7933,-123.1342 354.7933,-256.7035 0,-135.6562 -150.2656,-227.485 -336.0102,-206.6149 -125.2212,14.6091 -290.0958,98.0899 -358.9673,181.5707 l -54.2626,64.6975 -75.1326,-83.4808 c -41.7405,-43.8273 -93.9159,-106.4378 -118.9602,-137.7431 l -41.7403,-54.2627 58.4366,-62.6104 c 79.3066,-81.3938 310.9658,-198.2669 461.2311,-229.5722 250.4424,-50.0885 538.451,12.5221 709.5868,156.5264 196.1797,164.8746 217.05,550.9733 41.7403,738.8049 -79.3067,87.6549 -210.7889,150.2653 -461.2313,221.224 -250.4423,73.0458 -315.1399,110.6122 -350.6192,198.2669 -41.7404,110.612 77.2197,231.6591 229.572,231.6591 87.6549,0 300.531,-68.8714 373.5766,-121.0471 l 60.5235,-43.8273 98.0901,129.3952 c 91.8287,118.96 96.0027,129.3953 62.6104,164.8745 -18.7832,20.8703 -102.264,73.0458 -185.7448,114.7861 -131.4822,64.6975 -175.3095,75.1327 -336.0101,81.3938 -118.96,6.261 -214.9629,-2.0871 -271.3124,-20.8702 z"
       id="path2-4"
       style="fill:#f9f5ff;fill-opacity:1;stroke-width:2.08702" />
    <path
       d="m 4033.8643,5790.133 c -91.829,-227.4852 -256.7034,-636.541 -367.3155,-909.9405 l -202.4409,-496.7107 206.6149,6.2611 208.702,6.2611 73.0457,183.6578 73.0456,181.5706 h 379.8375 377.7507 l 73.0456,-185.7448 70.9587,-187.8316 204.5279,-6.2611 c 112.6992,-4.174 204.5279,-6.2611 204.5279,-6.2611 0,2.0871 -162.7875,409.0557 -363.1413,907.8535 l -363.1415,907.8534 -206.6149,6.2611 -206.6148,6.2611 z m 496.7107,-363.1414 c 66.7844,-183.6577 116.873,-336.0102 114.7861,-338.0971 -4.1742,-2.0872 -116.8731,0 -250.4425,6.2611 l -242.0942,10.435 116.873,327.662 c 64.6976,181.5708 121.0472,329.7493 127.3082,329.7493 6.2611,0 66.7846,-150.2656 133.5694,-336.0103 z"
       id="path3-5"
       style="fill:#f9f5ff;fill-opacity:1;stroke-width:2.08702" />
    <path
       d="M 7631.8858,5301.7705 C 7431.532,4807.1468 7264.5705,4396.004 7260.3964,4387.656 c -2.087,-6.2611 89.7418,-10.4351 202.4409,-6.2611 l 206.6149,6.2611 73.0463,181.5706 73.0456,181.5707 h 379.8382 379.8375 l 73.0456,-181.5707 73.0456,-181.5706 196.1798,-6.2611 c 108.5259,-4.174 196.1799,-2.0871 196.1799,4.174 0,6.2609 -162.787,415.3169 -361.0543,907.8536 l -358.9668,897.4182 -198.2673,6.2611 -198.268,6.2611 z m 584.3672,436.187 c 0,-14.6092 50.0887,-164.8745 112.6983,-333.923 l 110.6121,-306.792 -248.3559,-6.2611 c -135.6567,-4.1741 -246.2681,-2.0869 -246.2681,2.087 0,4.1741 54.2624,156.5266 118.9599,338.0972 106.4384,294.2699 152.3537,386.0986 152.3537,306.7919 z"
       id="path4-9"
       style="fill:#f9f5ff;fill-opacity:1;stroke-width:2.08702" />
    <path
       d="m 9468.4638,5291.3353 2.0875,-907.8535 505.0589,6.2611 c 469.5788,6.2611 513.4068,10.4352 624.0188,54.2624 148.179,60.5237 321.401,214.9631 398.621,352.7064 194.093,358.9674 144.002,849.4169 -118.961,1129.0776 -208.702,223.3112 -392.36,275.4865 -989.2458,275.4865 h -421.5794 z m 941.2462,519.6679 c 110.612,-50.0885 233.747,-179.4837 271.313,-290.0957 43.826,-133.5692 35.479,-377.7506 -18.783,-498.7977 -104.351,-227.4851 -212.877,-288.0086 -550.973,-298.4437 l -246.2688,-8.348 v 578.1044 580.1913 l 225.3978,-10.4352 c 160.701,-8.348 252.53,-22.957 319.314,-52.1754 z"
       id="path5-3"
       style="fill:#f9f5ff;fill-opacity:1;stroke-width:2.08702" />
    <path
       d="m 11636.878,5293.4225 -367.315,-907.8536 h 202.442 202.439 l 70.96,183.6577 73.045,181.5707 h 384.011 384.013 l 70.957,-181.5707 73.047,-181.5706 196.179,-6.2611 c 183.658,-6.2611 196.18,-4.174 185.746,33.3922 -4.174,20.8702 -166.962,432.013 -361.056,912.0276 l -348.531,874.4611 h -200.355 -200.353 z m 699.153,129.3951 c 64.697,-181.5707 116.872,-331.8362 116.872,-333.9231 0,-2.0872 -112.699,-4.1741 -250.443,-4.1741 -137.742,0 -250.442,4.1741 -250.442,10.4352 0,6.2611 52.176,150.2653 114.786,321.401 62.61,171.1355 114.787,325.575 114.787,344.3581 0,68.8717 41.739,-20.8702 154.44,-338.0971 z"
       id="path6-4"
       style="fill:#f9f5ff;fill-opacity:1;stroke-width:2.08702" />
    <path
       d="m 10881.471,4025.9314 c -190.084,-51.051 -323.685,-200.9454 -347.581,-391.0287 -23.897,-193.3419 39.103,-357.3567 178.135,-462.7171 94.499,-71.6886 154.239,-90.1539 304.134,-90.1539 128.17,0 131.428,1.0862 215.065,40.189 174.876,83.6368 267.204,234.6172 268.29,437.7349 0,135.7737 -41.277,241.1344 -131.43,336.719 -118.394,125.9982 -310.651,177.0491 -486.613,129.2568 z m 217.238,-173.7906 c 81.464,-23.8962 154.239,-98.8432 179.221,-184.6524 34.759,-120.5671 4.346,-262.8581 -70.602,-338.8914 -49.965,-48.8786 -92.326,-68.43 -162.929,-74.9472 -171.617,-15.2066 -292.185,96.671 -303.046,280.2372 -5.432,103.1882 16.293,179.2215 71.688,240.0481 78.205,86.8953 170.532,111.8777 285.668,78.2057 z"
       id="path7-1"
       style="fill:#f9f5ff;fill-opacity:1;stroke-width:1.08619" />
    <path
       d="m 3700.6639,4022.6728 c -178.1352,-58.6543 -265.0305,-225.9276 -193.3419,-376.9082 40.1891,-85.809 112.9638,-125.9981 344.3224,-188.9971 124.912,-33.672 147.722,-156.4115 38.0167,-202.0314 -80.3781,-33.6719 -203.1177,-1.0863 -269.3753,71.6885 l -38.0166,42.3615 -65.1715,-73.861 -65.1714,-72.7748 58.6543,-45.62 c 74.9471,-58.6542 141.2048,-86.8952 241.1343,-102.1019 139.0323,-20.6376 269.3752,18.4653 349.7534,105.3605 48.8785,53.2233 66.2576,103.1881 66.2576,190.0833 -1.0862,144.4633 -86.8953,223.7553 -308.4781,282.4095 -142.291,38.0168 -172.7044,60.8268 -167.2734,125.9982 7.6034,94.4985 130.3429,115.1361 270.4615,45.62 l 76.0333,-38.0167 48.8785,60.8266 47.7924,60.8268 -34.758,31.4995 c -69.5163,59.7405 -144.4634,84.7228 -263.9444,89.0676 -59.7405,2.1724 -120.5671,0 -135.7738,-5.4309 z"
       id="path8-6"
       style="fill:#f9f5ff;fill-opacity:1;stroke-width:1.08619" />
    <path
       d="m 4477.2902,3563.2142 c -101.0158,-251.9963 -185.7386,-461.631 -187.911,-467.062 -2.1723,-4.3447 44.5339,-8.6895 103.1881,-8.6895 h 106.4467 l 38.0167,97.7571 38.0167,97.7572 h 190.0832 190.0834 l 38.0167,-97.7572 38.0167,-97.7571 h 105.3604 104.2743 l -185.7385,464.8896 -186.8249,463.8033 -103.1881,3.2586 -103.188,2.1724 z m 351.9258,57.5681 62.999,-174.8767 h -129.2567 c -119.481,0 -130.3429,2.1723 -123.8257,18.4651 4.3447,10.862 32.5856,91.2401 64.0852,179.2216 30.4134,86.8952 57.5681,157.4977 59.7405,156.4114 1.0862,-2.1723 31.4995,-82.5505 66.2577,-179.2214 z"
       id="path9-5"
       style="fill:#f9f5ff;fill-opacity:1;stroke-width:1.08619" />
    <path
       d="m 5438.5689,3554.5246 v -467.0619 h 97.7571 97.7571 l 2.1724,295.4438 3.2586,295.4439 210.721,-295.4439 210.721,-295.4438 h 96.6708 95.5848 v 467.0619 467.062 h -97.7571 -97.7571 l -2.1724,-299.7886 -3.2586,-298.7025 -164.0148,231.3587 c -90.1538,127.0843 -184.6523,261.7718 -210.721,299.7886 l -47.7924,67.3438 h -95.5847 -95.5847 z"
       id="path10-5"
       style="fill:#f9f5ff;fill-opacity:1;stroke-width:1.08619" />
    <path
       d="m 6894.0642,3555.6108 v -468.1481 h 103.188 103.1881 v 156.4114 156.4115 l 144.4634,4.3447 c 121.653,3.2585 152.0667,7.6034 200.9456,29.3272 180.3078,80.378 223.7554,345.4086 79.2918,489.8719 -81.4648,81.4643 -117.3089,90.1538 -394.2874,95.5848 l -236.7895,4.3447 z m 439.9074,274.8062 c 49.9649,-22.8099 74.9474,-74.9472 68.4301,-139.0324 -10.8625,-93.4123 -65.1718,-125.9981 -211.8075,-125.9981 h -95.5847 v 141.2049 141.2047 h 101.0157 c 69.5161,0 112.9637,-5.431 137.9464,-17.3791 z"
       id="path11-9"
       style="fill:#f9f5ff;fill-opacity:1;stroke-width:1.08619" />
    <path
       d="m 8023.703,3997.6904 c -6.5166,-14.1205 -91.2404,-223.7553 -187.9113,-467.062 L 7658.743,3087.4627 h 104.2743 105.3603 l 36.9311,95.5847 38.0164,94.4986 h 193.3417 193.3425 l 38.0164,-94.4986 38.0171,-95.5847 h 103.1874 c 78.2058,0 102.1021,3.2586 97.7578,14.1205 -2.173,6.5172 -86.8953,217.2381 -186.8252,467.0618 l -181.3939,452.9416 h -102.1021 c -95.5848,0 -103.1882,-1.0863 -112.9638,-23.8962 z m 177.0487,-374.7358 c 33.672,-93.4123 59.7406,-171.6181 57.5684,-173.7904 -2.1722,-2.1724 -59.7406,-2.1724 -128.1707,-1.0863 l -124.9116,3.2586 60.8267,170.5319 c 33.672,94.4987 62.9996,171.6182 66.2579,171.6182 3.2583,0 33.672,-77.1195 68.4293,-170.532 z"
       id="path12-1"
       style="fill:#f9f5ff;fill-opacity:1;stroke-width:1.08619" />
    <path
       d="m 8805.7601,3553.4385 v -468.1482 l 263.944,4.3448 c 249.8248,3.2586 266.1177,4.3447 320.427,29.3271 97.7577,44.5338 154.2393,131.429 154.2393,238.9619 0,83.6367 -52.1379,168.3596 -120.5665,196.6005 -40.1893,17.379 -39.104,22.81 2.1722,47.7924 21.7234,13.0343 43.4468,41.2753 60.8266,79.292 64.085,140.1185 -16.2929,295.4437 -170.5321,328.0294 -30.4137,6.5172 -157.4983,11.9482 -282.4107,11.9482 h -228.0998 z m 439.9082,290.0128 c 91.2404,-39.1028 76.0327,-162.9285 -24.9825,-191.1696 -21.7242,-5.4309 -82.5508,-10.8618 -134.6872,-10.8618 h -95.5855 v 108.6191 108.619 h 108.6194 c 69.5162,0 122.7387,-5.4311 146.6358,-15.2067 z m 44.5337,-377.9942 c 62.9989,-33.672 74.9467,-121.6535 22.8103,-169.4458 -39.1032,-36.9305 -79.2926,-45.6201 -204.2042,-45.6201 h -118.395 v 120.5672 120.5672 l 133.6011,-4.3448 c 96.6716,-3.2586 141.2061,-8.6895 166.1878,-21.7237 z"
       id="path13-9"
       style="fill:#f9f5ff;fill-opacity:1;stroke-width:1.08619" />
    <path
       d="m 9774.6431,3554.5246 3.2591,-467.0619 h 311.7348 312.824 v 86.8953 86.8952 h -211.807 -211.8078 v 380.1667 380.1667 h -103.188 -104.2741 z"
       id="path14-2"
       style="fill:#f9f5ff;fill-opacity:1;stroke-width:1.08619" />
  </g>
</svg>
