<?xml version="1.0" encoding="UTF-8" standalone="no"?>
<svg
   version="1.0"
   width="1122.2606pt"
   height="841.09998pt"
   viewBox="0 0 1122.2606 841.09998"
   preserveAspectRatio="xMidYMid"
   id="svg29"
   sodipodi:docname="LogoRedSanPablo(horizontal).svg"
   inkscape:export-filename="LogoRedSanPabloHG.svg"
   inkscape:export-xdpi="96"
   inkscape:export-ydpi="96"
   inkscape:version="1.3.2 (091e20e, 2023-11-25, custom)"
   xmlns:inkscape="http://www.inkscape.org/namespaces/inkscape"
   xmlns:sodipodi="http://sodipodi.sourceforge.net/DTD/sodipodi-0.dtd"
   xmlns="http://www.w3.org/2000/svg"
   xmlns:svg="http://www.w3.org/2000/svg">
  <sodipodi:namedview
     id="namedview1"
     pagecolor="#ffffff"
     bordercolor="#000000"
     borderopacity="0.25"
     inkscape:showpageshadow="2"
     inkscape:pageopacity="0.0"
     inkscape:pagecheckerboard="0"
     inkscape:deskcolor="#d1d1d1"
     inkscape:document-units="pt"
     inkscape:zoom="0.31443231"
     inkscape:cx="1070.1826"
     inkscape:cy="308.49247"
     inkscape:window-width="1920"
     inkscape:window-height="991"
     inkscape:window-x="1691"
     inkscape:window-y="-9"
     inkscape:window-maximized="1"
     inkscape:current-layer="g29" />
  <defs
     id="defs29" />
  <g
     transform="matrix(0.1,0,0,-0.1,33.211711,935.9)"
     fill="#000000"
     stroke="none"
     id="g29">
    <path
       d="m 1267.117,7097.9929 c -224,-452 -361.99996,-676 -747.99996,-1222 -485.999995,-685 -586.999995,-849 -701,-1132 -195,-485 -200,-981 -16,-1435 189.0000045,-466 597,-852 1066,-1008 202.99996,-68 282.99996,-79 550.99996,-79 209,0 252,2 335,21 245,55 484,159 670,291 122,86 316,280 402,402 37,52 96,151 132,220 140,273 196,511 196,840 0,338 -69,620 -233,947 -108,215 -196,350 -567,873 -454,640 -594,867 -825,1343 -60,124 -112,226 -115,226 -3,0 -69,-129 -147,-287 z m 385,-1602 c 45,-6 91,-14 102,-18 19,-7 18,-9 -10,-52 -24,-37 -30,-56 -30,-101 0,-78 -20,-102 -106,-123 -117,-30 -155,-59 -205,-158 -25,-50 -33,-58 -58,-58 -21,0 -38,10 -60,35 -39,45 -52,76 -81,195 -36,151 -61,186 -154,222 l -39,15 69,17 c 38,9 96,20 129,25 87,12 347,13 443,1 z m -782.99996,-153 c 53,-36 142.99996,-124 149.99996,-148 10,-31 -3,-84 -24.99996,-104 -43,-39 -112,-14 -202,71 -31,30 -61,54 -67,54 -15,0 -26,-22 -23,-51 4,-30 -60,-94 -126,-128 -90,-46 -94,-79 -21,-168 28,-35 66,-72 85,-84 32,-20 36,-20 59,-5 14,9 25,17 25,19 0,28 35,168 46,185 44,67 123,40 241.99996,-81 77,-79 142,-168 142,-193 0,-29 -32,-44 -90,-44 -33,0 -70.99996,-5 -84.99996,-12 -22,-10 -25,-17 -25,-67 0,-31 -4,-61 -8,-68 -4,-6 -36,-24 -72,-39 -36,-15 -75,-34 -88,-42 -12,-8 -61,-72 -108,-143 -94,-140 -91,-127 -68,-246 9,-47 -16,-43 -56,7 -56,71 -108,84 -210,54 -64,-19 -110,-61 -110,-101 1,-40 34,-109 63,-128 24,-15 28,-15 66,4 22,12 49,21 60,21 37,0 50,-56 27,-112 -11,-25 35,-68 73,-68 24,0 34,-7 53,-42 36,-64 47,-67 119,-33 50,24 75,30 128,30 102,-1 143,-25 279.99996,-164 124,-127 147,-142 256,-165 83,-17 111,-37 126,-84 15,-52 -1,-128 -50,-229 -40,-82 -67,-114 -187,-220 -43,-37 -105,-109 -158,-182 -48,-66 -90.99996,-123 -95.99996,-126 -14,-9 -170,46 -197,69 -24,21 -24,22 -13,106 35,254 30,277 -84,399 -119,128 -151,227 -111,341 23,65 19,86 -26,135 -52,57 -142,116 -285,189 -61,31 -127,71 -147,89 -26,23 -62.999995,84 -127.9999955,216 l -91.9999995,184 12,79 c 41,264 186.999995,534 410.999995,758 133,133 219,197 352,261 94,45 125,46 183,6 z m 1638.99996,-309 c 236,-237 349,-457 401,-780 18,-114 21,-406 5,-518 -44,-313 -159,-551 -376,-779 l -97,-102 -23,67 c -28,79 -30,129 -8,261 17,110 10,169 -31,239 -39,66 -87,84 -221,84 -138,0 -190,16 -254,79 -62,60 -77,119 -56,220 25,119 132,305 204,355 80,55 195,87 256,72 14,-3 51,-29 82,-56 64,-56 127,-80 207,-80 110,0 167,39 167,114 0,38 -5,46 -71,108 -39,38 -75,68 -78,68 -4,0 -15,-16 -24,-35 -21,-44 -61,-71 -87,-59 -10,5 -41,38 -67,74 -76,102 -133,108 -181,18 -37,-71 -80,-114 -127,-127 -94,-26 -142,-5 -152,66 -5,37 -2,46 25,73 21,20 40,30 61,30 46,0 65,26 84,115 26,121 48,153 135,196 40,20 84,47 97,59 26,24 51,77 41,87 -3,3 -37,0 -74,-7 -55,-10 -73,-10 -92,0 -20,11 -22,17 -17,62 6,51 40,119 73,150 21,18 74,48 88,48 4,0 54,-46 110,-102 z m -411,-184 c 48,-55 62,-149 27,-184 -27,-27 -76,-26 -94,3 -34,52 -32,146 5,186 26,27 34,27 62,-5 z"
       id="path1-2"
       style="fill:#091540;fill-opacity:1" />
    <path
       d="m 8166.3148,6398.1481 c -231.1087,-74.7194 -352.7449,-227.6335 -352.7449,-437.8902 0,-234.5841 123.3738,-352.7449 469.1681,-450.0538 250.2229,-71.244 295.4021,-102.5219 295.4021,-213.7322 0,-112.9478 -125.1116,-189.4048 -279.7632,-172.0283 -104.2596,12.1636 -241.5348,81.67 -298.8774,151.1764 l -45.1792,53.8674 -62.5557,-69.5064 c -34.7533,-36.4908 -78.1947,-88.6205 -99.0467,-114.6854 l -34.7531,-45.1793 48.6545,-52.1296 c 66.031,-67.7688 258.9112,-165.0777 384.0226,-191.1426 208.5192,-41.7039 448.3162,10.4259 590.8044,130.3244 163.3399,137.2751 180.7166,458.7422 34.7531,615.1315 -66.031,72.9817 -175.5035,125.1114 -384.0227,184.1918 -208.5191,60.8182 -262.3866,92.0961 -291.9268,165.0777 -34.7532,92.0959 64.2934,192.8802 191.1425,192.8802 72.9817,0 250.2231,-57.3426 311.0411,-100.7843 l 50.3921,-36.4907 81.6701,107.7349 c 76.4569,99.0465 79.9322,107.7349 52.1297,137.275 -15.639,17.3767 -85.1454,60.8182 -154.6518,95.5713 -109.4725,53.8674 -145.9633,62.5558 -279.7631,67.7688 -99.0465,5.2129 -178.9789,-1.7377 -225.8957,-17.3766 z"
       id="path2-4"
       style="fill:#091540;fill-opacity:1;stroke-width:1.73766" />
    <path
       d="m 6451.2448,6045.4032 c -76.4571,-189.405 -213.7321,-529.9862 -305.8281,-757.6196 l -168.553,-413.563 172.0283,5.213 173.766,5.213 60.8181,152.9141 60.818,151.1763 h 316.254 314.5165 l 60.818,-154.6517 59.0805,-156.3893 170.2906,-5.213 c 93.8337,-3.4753 170.2906,-5.213 170.2906,-5.213 0,1.7377 -135.5374,340.5812 -302.3527,755.8819 l -302.3528,755.8819 -172.0283,5.213 -172.0282,5.213 z m 413.563,-302.3528 c 55.605,-152.914 97.3089,-279.7632 95.5713,-281.5008 -3.4754,-1.7378 -97.3089,0 -208.5192,5.213 l -201.5685,8.6882 97.3089,272.8125 c 53.8674,151.1765 100.7843,274.5504 105.9972,274.5504 5.213,0 55.6051,-125.1116 111.2103,-279.7633 z"
       id="path3-5"
       style="fill:#091540;fill-opacity:1;stroke-width:1.73766" />
    <path
       d="m 9446.9698,5638.7909 c -166.8153,-411.8254 -305.828,-754.1443 -309.3034,-761.0949 -1.7376,-5.213 74.7194,-8.6883 168.553,-5.213 l 172.0283,5.213 60.8186,151.1763 60.818,151.1764 h 316.2544 316.2543 l 60.818,-151.1764 60.818,-151.1763 163.34,-5.213 c 90.359,-3.4753 163.34,-1.7377 163.34,3.4753 0,5.2129 -135.537,345.7943 -300.615,755.882 l -298.877,747.1935 -165.0783,5.213 -165.0784,5.213 z m 486.5459,363.1708 c 0,-12.1637 41.704,-137.2751 93.8333,-278.0255 l 92.096,-255.436 -206.7823,-5.213 c -112.948,-3.4754 -205.0434,-1.7376 -205.0434,1.7376 0,3.4754 45.179,130.3246 99.0464,281.5009 88.621,245.0101 126.85,321.467 126.85,255.436 z"
       id="path4-9"
       style="fill:#091540;fill-opacity:1;stroke-width:1.73766" />
    <path
       d="m 10976.111,5630.1025 1.738,-755.8819 420.514,5.213 c 390.973,5.213 427.464,8.6884 519.56,45.1791 123.374,50.3922 267.6,178.979 331.893,293.6645 161.603,298.8775 119.897,707.2274 -99.047,940.0739 -173.766,185.9296 -326.68,229.371 -823.65,229.371 h -351.008 z m 783.685,432.6773 c 92.096,-41.7039 194.618,-149.4388 225.896,-241.5347 36.49,-111.2102 29.54,-314.5164 -15.639,-415.3007 -86.883,-189.4048 -177.242,-239.7969 -458.742,-248.4852 l -205.044,-6.9506 v 481.3317 483.0693 l 187.667,-8.6884 c 133.8,-6.9506 210.257,-19.1141 265.862,-43.4414 z"
       id="path5-3"
       style="fill:#091540;fill-opacity:1;stroke-width:1.73766" />
    <path
       d="m 12781.54,5631.8403 -305.828,-755.882 h 168.554 168.552 l 59.081,152.914 60.818,151.1764 h 319.729 319.73 l 59.079,-151.1764 60.819,-151.1763 163.34,-5.213 c 152.914,-5.213 163.34,-3.4753 154.652,27.8025 -3.475,17.3766 -139.013,359.6955 -300.616,759.3573 l -290.188,728.0793 h -166.816 -166.815 z m 582.117,107.7348 c 53.867,-151.1764 97.308,-276.2879 97.308,-278.0255 0,-1.7378 -93.833,-3.4754 -208.519,-3.4754 -114.685,0 -208.519,3.4754 -208.519,8.6884 0,5.213 43.442,125.1114 95.571,267.5996 52.129,142.488 95.572,271.0748 95.572,286.7137 0,57.3428 34.752,-17.3766 128.587,-281.5008 z"
       id="path6-4"
       style="fill:#091540;fill-opacity:1;stroke-width:1.73766" />
    <path
       d="m 15287.245,4413.7409 c -304.09,-81.67 -517.822,-321.4671 -556.05,-625.5575 -38.229,-309.3034 62.555,-571.69 284.976,-740.2429 151.176,-114.6855 246.747,-144.2258 486.545,-144.2258 205.044,0 210.255,1.7376 344.055,64.2934 279.763,133.7998 427.466,375.3345 429.203,700.2768 0,217.2074 -66.032,385.7605 -210.257,538.6744 -189.405,201.5686 -496.971,283.2385 -778.472,206.7816 z m 347.532,-278.0256 c 130.324,-38.2285 246.748,-158.1269 286.714,-295.4021 55.605,-192.8802 6.951,-420.5136 -112.947,-542.1497 -79.933,-78.1948 -147.702,-109.4726 -260.649,-119.8986 -274.55,-24.3272 -467.431,154.6517 -484.807,448.3162 -8.689,165.0777 26.065,286.7139 114.685,384.0228 125.111,139.0128 272.813,178.9789 457.004,125.1114 z"
       id="path7-1"
       style="fill:#091540;fill-opacity:1;stroke-width:1.73766" />
    <path
       d="m 3799.5763,4408.5279 c -284.9761,-93.8336 -423.9889,-361.4331 -309.3033,-602.9679 64.2934,-137.2751 180.7165,-201.5685 550.838,-302.3527 199.8309,-53.8675 236.3218,-250.223 60.8181,-323.2047 -128.5868,-53.8674 -324.9424,-1.7377 -430.9396,114.6855 l -60.818,67.7688 -104.2597,-118.1609 -104.2595,-116.4232 93.8337,-72.9817 c 119.8984,-93.8336 225.8957,-139.0128 385.7604,-163.34 222.4203,-33.0155 430.9395,29.5402 559.5263,168.553 78.1947,85.1453 105.9973,165.0776 105.9973,304.0904 -1.7377,231.1087 -139.0128,357.9579 -493.4953,451.7914 -227.6335,60.8182 -276.288,97.3091 -267.5996,201.5686 12.1636,151.1763 208.5191,184.1918 432.6772,72.9817 l 121.6361,-60.8181 78.1947,97.3089 76.457,97.309 -55.605,50.3921 c -111.2103,95.5713 -231.1087,135.5374 -422.2513,142.4881 -95.5713,3.4753 -192.8802,0 -217.2075,-8.6883 z"
       id="path8-6"
       style="fill:#091540;fill-opacity:1;stroke-width:1.73766" />
    <path
       d="m 5042.0029,3673.4979 c -161.6024,-403.1371 -297.1398,-738.5053 -300.6151,-747.1936 -3.4753,-6.9506 71.2441,-13.9012 165.0777,-13.9012 h 170.2906 l 60.8181,156.3893 60.8181,156.3893 h 304.0903 304.0905 l 60.8181,-156.3893 60.8181,-156.3893 h 168.5529 166.8154 l -297.1398,743.7183 -298.8775,741.9805 -165.0777,5.213 -165.0775,3.4754 z m 563.0018,92.096 100.7841,-279.7632 h -206.7814 c -191.1426,0 -208.5192,3.4752 -198.0932,29.5401 6.9506,17.3766 52.1297,145.9635 102.5219,286.7139 48.6545,139.0128 92.0959,251.9607 95.5713,250.223 1.7376,-3.4753 50.3921,-132.0621 105.9973,-286.7138 z"
       id="path9-5"
       style="fill:#091540;fill-opacity:1;stroke-width:1.73766" />
    <path
       d="m 6579.8317,3659.5966 v -747.1935 h 156.3893 156.3893 l 3.4754,472.6433 5.213,472.6434 337.1059,-472.6434 337.106,-472.6433 h 154.6516 152.9141 v 747.1935 747.1937 h -156.3894 -156.3893 l -3.4754,-479.5941 -5.213,-477.8564 -262.3865,370.1215 c -144.2258,203.3062 -295.4021,418.7759 -337.106,479.5941 l -76.457,107.7349 h -152.9141 -152.9139 z"
       id="path10-5"
       style="fill:#091540;fill-opacity:1;stroke-width:1.73766" />
    <path
       d="m 8908.2955,3661.3343 v -748.9312 h 165.0775 165.0777 v 250.2228 250.2231 l 231.1087,6.9506 c 194.6179,5.2129 243.2729,12.1637 321.4673,46.9168 288.4523,128.5868 357.9583,552.5757 126.849,783.6845 -130.3244,130.3244 -187.6674,144.2256 -630.7706,152.914 l -378.8096,6.9506 z m 703.7518,439.6279 c 79.933,-36.4909 119.899,-119.8986 109.473,-222.4205 -17.377,-149.4387 -104.26,-201.5685 -338.8439,-201.5685 h -152.9139 v 225.8958 225.8957 h 161.6023 c 111.2102,0 180.7165,-8.6883 220.6825,-27.8025 z"
       id="path11-9"
       style="fill:#091540;fill-opacity:1;stroke-width:1.73766" />
    <path
       d="m 10715.463,4368.5618 c -10.426,-22.5897 -145.964,-357.9579 -300.616,-747.1937 l -283.238,-708.965 h 166.815 168.553 l 59.081,152.9139 60.818,151.1764 h 309.303 309.304 l 60.818,-151.1764 60.818,-152.9139 h 165.077 c 125.112,0 163.34,5.213 156.39,22.5895 -3.476,10.426 -139.013,347.5319 -298.878,747.1935 l -290.189,724.6042 h -163.34 c -152.914,0 -165.078,-1.7378 -180.716,-38.2285 z m 283.238,-599.4926 c 53.867,-149.4387 95.571,-274.5503 92.096,-278.0255 -3.475,-3.4754 -95.571,-3.4754 -205.044,-1.7378 l -199.831,5.213 97.309,272.8126 c 53.868,151.1765 100.785,274.5503 105.998,274.5503 5.212,0 53.867,-123.3738 109.472,-272.8126 z"
       id="path12-1"
       style="fill:#091540;fill-opacity:1;stroke-width:1.73766" />
    <path
       d="m 11966.577,3657.859 v -748.9313 l 422.251,6.9506 c 399.663,5.213 425.728,6.9507 512.611,46.9168 156.39,71.244 246.747,210.2568 246.747,382.2851 0,133.7998 -83.408,269.3373 -192.879,314.5164 -64.294,27.8025 -62.557,36.4909 3.475,76.457 34.753,20.8519 69.506,66.0311 97.309,126.8492 102.522,224.1581 -26.065,472.6433 -272.813,524.7731 -48.655,10.426 -251.961,19.1144 -451.793,19.1144 h -364.908 z m 703.754,463.9551 c 145.963,-62.5558 121.635,-260.6489 -39.967,-305.8282 -34.753,-8.6882 -132.063,-17.3765 -215.469,-17.3765 h -152.915 v 173.766 173.7659 h 173.766 c 111.211,0 196.355,-8.6884 234.585,-24.3272 z m 71.243,-604.7055 c 100.784,-53.8674 119.898,-194.618 36.492,-271.0749 -62.557,-59.0805 -126.851,-72.9818 -326.681,-72.9818 h -189.405 v 192.8802 192.8802 l 213.732,-6.9506 c 154.652,-5.213 225.897,-13.9013 265.862,-34.7531 z"
       id="path13-9"
       style="fill:#091540;fill-opacity:1;stroke-width:1.73766" />
    <path
       d="m 13516.571,3659.5966 5.213,-747.1935 h 498.707 500.447 v 139.0127 139.0128 h -338.844 -338.844 v 608.1808 608.1809 h -165.077 -166.816 z"
       id="path14-2"
       style="fill:#091540;fill-opacity:1;stroke-width:1.73766" />
  </g>
</svg>
