<?xml version="1.0" encoding="UTF-8" standalone="no"?>
<svg
   version="1.0"
   width="348.62344pt"
   height="516.29999pt"
   viewBox="0 0 348.62346 516.29999"
   preserveAspectRatio="xMidYMid"
   id="svg29"
   sodipodi:docname="RedSanPablo.svg"
   inkscape:version="1.3.2 (091e20e, 2023-11-25, custom)"
   xmlns:inkscape="http://www.inkscape.org/namespaces/inkscape"
   xmlns:sodipodi="http://sodipodi.sourceforge.net/DTD/sodipodi-0.dtd"
   xmlns="http://www.w3.org/2000/svg"
   xmlns:svg="http://www.w3.org/2000/svg">
  <sodipodi:namedview
     id="namedview1"
     pagecolor="#ffffff"
     bordercolor="#000000"
     borderopacity="0.25"
     inkscape:showpageshadow="2"
     inkscape:pageopacity="0.0"
     inkscape:pagecheckerboard="0"
     inkscape:deskcolor="#d1d1d1"
     inkscape:document-units="pt"
     inkscape:zoom="0.87303895"
     inkscape:cx="232.52113"
     inkscape:cy="344.19999"
     inkscape:window-width="1536"
     inkscape:window-height="793"
     inkscape:window-x="-8"
     inkscape:window-y="-8"
     inkscape:window-maximized="1"
     inkscape:current-layer="g29" />
  <defs
     id="defs29" />
  <g
     transform="matrix(0.1,0,0,-0.1,-464.83486,738.4993)"
     fill="#000000"
     stroke="none"
     id="g29">
    <path
       d="m 6247.5827,7097.993 c -224,-452 -361.9999,-676 -747.9999,-1222 -486,-685 -587,-849 -701,-1132 -195,-485 -200,-981 -16,-1435 189,-466 597,-852 1066,-1008 202.9999,-68 282.9999,-79 550.9999,-79 209,0 252,2 335,21 245,55 484,159 670,291 122,86 316,280 402,402 37,52 96,151 132,220 140,273 196,511 196,840 0,338 -69,620 -233,947 -108,215 -196,350 -567,873 -454,640 -594,867 -825,1343 -60,124 -112,226 -115,226 -3,0 -69,-129 -147,-287 z m 385,-1602 c 45,-6 91,-14 102,-18 19,-7 18,-9 -10,-52 -24,-37 -30,-56 -30,-101 0,-78 -20,-102 -106,-123 -117,-30 -155,-59 -205,-158 -25,-50 -33,-58 -58,-58 -21,0 -38,10 -60,35 -39,45 -52,76 -81,195 -36,151 -61,186 -154,222 l -39,15 69,17 c 38,9 96,20 129,25 87,12 347,13 443,1 z m -782.9999,-153 c 53,-36 142.9999,-124 149.9999,-148 10,-31 -3,-84 -24.9999,-104 -43,-39 -112,-14 -202,71 -31,30 -61,54 -67,54 -15,0 -26,-22 -23,-51 4,-30 -60,-94 -126,-128 -90,-46 -94,-79 -21,-168 28,-35 66,-72 85,-84 32,-20 36,-20 59,-5 14,9 25,17 25,19 0,28 35,168 46,185 44,67 123,40 241.9999,-81 77,-79 142,-168 142,-193 0,-29 -32,-44 -90,-44 -33,0 -70.9999,-5 -84.9999,-12 -22,-10 -25,-17 -25,-67 0,-31 -4,-61 -8,-68 -4,-6 -36,-24 -72,-39 -36,-15 -75,-34 -88,-42 -12,-8 -61,-72 -108,-143 -94,-140 -91,-127 -68,-246 9,-47 -16,-43 -56,7 -56,71 -108,84 -210,54 -64,-19 -110,-61 -110,-101 1,-40 34,-109 63,-128 24,-15 28,-15 66,4 22,12 49,21 60,21 37,0 50,-56 27,-112 -11,-25 35,-68 73,-68 24,0 34,-7 53,-42 36,-64 47,-67 119,-33 50,24 75,30 128,30 102,-1 143,-25 279.9999,-164 124,-127 147,-142 256,-165 83,-17 111,-37 126,-84 15,-52 -1,-128 -50,-229 -40,-82 -67,-114 -187,-220 -43,-37 -105,-109 -158,-182 -48,-66 -90.9999,-123 -95.9999,-126 -14,-9 -170,46 -197,69 -24,21 -24,22 -13,106 35,254 30,277 -84,399 -119,128 -151,227 -111,341 23,65 19,86 -26,135 -52,57 -142,116 -285,189 -61,31 -127,71 -147,89 -26,23 -63,84 -128,216 l -92,184 12,79 c 41,264 187,534 411,758 133,133 219,197 352,261 94,45 125,46 183,6 z m 1638.9999,-309 c 236,-237 349,-457 401,-780 18,-114 21,-406 5,-518 -44,-313 -159,-551 -376,-779 l -97,-102 -23,67 c -28,79 -30,129 -8,261 17,110 10,169 -31,239 -39,66 -87,84 -221,84 -138,0 -190,16 -254,79 -62,60 -77,119 -56,220 25,119 132,305 204,355 80,55 195,87 256,72 14,-3 51,-29 82,-56 64,-56 127,-80 207,-80 110,0 167,39 167,114 0,38 -5,46 -71,108 -39,38 -75,68 -78,68 -4,0 -15,-16 -24,-35 -21,-44 -61,-71 -87,-59 -10,5 -41,38 -67,74 -76,102 -133,108 -181,18 -37,-71 -80,-114 -127,-127 -94,-26 -142,-5 -152,66 -5,37 -2,46 25,73 21,20 40,30 61,30 46,0 65,26 84,115 26,121 48,153 135,196 40,20 84,47 97,59 26,24 51,77 41,87 -3,3 -37,0 -74,-7 -55,-10 -73,-10 -92,0 -20,11 -22,17 -17,62 6,51 40,119 73,150 21,18 74,48 88,48 4,0 54,-46 110,-102 z m -411,-184 c 48,-55 62,-149 27,-184 -27,-27 -76,-26 -94,3 -34,52 -32,146 5,186 26,27 34,27 62,-5 z"
       id="path1-2"
       style="fill:#091540;fill-opacity:1" />
  </g>
</svg>
